<?xml version="1.0" encoding="UTF-8" standalone="no"?>
<!DOCTYPE svg PUBLIC "-//W3C//DTD SVG 1.1//EN"
 "http://www.w3.org/Graphics/SVG/1.1/DTD/svg11.dtd">
<!-- Generated by graphviz version 2.44.1 (20200629.0846)
 -->
<!-- Title: controllers_diagram Pages: 1 -->
<svg width="704pt" height="663pt"
 viewBox="0.00 0.00 704.00 663.00" xmlns="http://www.w3.org/2000/svg" xmlns:xlink="http://www.w3.org/1999/xlink">
<g id="graph0" class="graph" transform="scale(1 1) rotate(0) translate(4 659)">
<title>controllers_diagram</title>
<polygon fill="transparent" stroke="transparent" points="-4,4 -4,-659 700,-659 700,4 -4,4"/>
<!-- _diagram_info -->
<g id="node1" class="node">
<title>_diagram_info</title>
<text text-anchor="start" x="360" y="-191.6" font-family="Times,serif" font-size="13.00">Controllers diagram</text>
<text text-anchor="start" x="360" y="-177.6" font-family="Times,serif" font-size="13.00">Date: Aug 06 2020 &#45; 20:15</text>
<text text-anchor="start" x="360" y="-163.6" font-family="Times,serif" font-size="13.00">Migration version: 20200806234457</text>
<text text-anchor="start" x="360" y="-149.6" font-family="Times,serif" font-size="13.00">Generated by RailRoady 1.5.3</text>
<text text-anchor="start" x="360" y="-135.6" font-family="Times,serif" font-size="13.00">http://railroady.prestonlee.com</text>
</g>
<!-- ApplicationController -->
<g id="node2" class="node">
<title>ApplicationController</title>
<path fill="none" stroke="black" d="M28,-304.5C28,-304.5 140,-304.5 140,-304.5 146,-304.5 152,-310.5 152,-316.5 152,-316.5 152,-386.5 152,-386.5 152,-392.5 146,-398.5 140,-398.5 140,-398.5 28,-398.5 28,-398.5 22,-398.5 16,-392.5 16,-386.5 16,-386.5 16,-316.5 16,-316.5 16,-310.5 22,-304.5 28,-304.5"/>
<text text-anchor="middle" x="84" y="-383.3" font-family="Times,serif" font-size="14.00">ApplicationController</text>
<polyline fill="none" stroke="black" points="16,-375.5 152,-375.5 "/>
<polyline fill="none" stroke="black" points="16,-351.5 152,-351.5 "/>
<polyline fill="none" stroke="black" points="16,-327.5 152,-327.5 "/>
<text text-anchor="start" x="24" y="-312.3" font-family="Times,serif" font-size="14.00">_layout</text>
</g>
<!-- PagesController -->
<g id="node3" class="node">
<title>PagesController</title>
<path fill="none" stroke="black" d="M604,-0.5C604,-0.5 684,-0.5 684,-0.5 690,-0.5 696,-6.5 696,-12.5 696,-12.5 696,-111.5 696,-111.5 696,-117.5 690,-123.5 684,-123.5 684,-123.5 604,-123.5 604,-123.5 598,-123.5 592,-117.5 592,-111.5 592,-111.5 592,-12.5 592,-12.5 592,-6.5 598,-0.5 604,-0.5"/>
<text text-anchor="middle" x="644" y="-108.3" font-family="Times,serif" font-size="14.00">PagesController</text>
<polyline fill="none" stroke="black" points="592,-100.5 696,-100.5 "/>
<text text-anchor="start" x="600" y="-85.3" font-family="Times,serif" font-size="14.00">index</text>
<text text-anchor="start" x="600" y="-70.3" font-family="Times,serif" font-size="14.00">profile</text>
<text text-anchor="start" x="600" y="-55.3" font-family="Times,serif" font-size="14.00">user_form</text>
<polyline fill="none" stroke="black" points="592,-47.5 696,-47.5 "/>
<polyline fill="none" stroke="black" points="592,-23.5 696,-23.5 "/>
<text text-anchor="start" x="600" y="-8.3" font-family="Times,serif" font-size="14.00">_layout</text>
</g>
<!-- UsersController -->
<g id="node4" class="node">
<title>UsersController</title>
<path fill="none" stroke="black" d="M236,-448.5C236,-448.5 315,-448.5 315,-448.5 321,-448.5 327,-454.5 327,-460.5 327,-460.5 327,-619.5 327,-619.5 327,-625.5 321,-631.5 315,-631.5 315,-631.5 236,-631.5 236,-631.5 230,-631.5 224,-625.5 224,-619.5 224,-619.5 224,-460.5 224,-460.5 224,-454.5 230,-448.5 236,-448.5"/>
<text text-anchor="middle" x="275.5" y="-616.3" font-family="Times,serif" font-size="14.00">UsersController</text>
<polyline fill="none" stroke="black" points="224,-608.5 327,-608.5 "/>
<text text-anchor="start" x="232" y="-593.3" font-family="Times,serif" font-size="14.00">destroy</text>
<text text-anchor="start" x="232" y="-578.3" font-family="Times,serif" font-size="14.00">edit</text>
<text text-anchor="start" x="232" y="-563.3" font-family="Times,serif" font-size="14.00">profile</text>
<text text-anchor="start" x="232" y="-548.3" font-family="Times,serif" font-size="14.00">show</text>
<text text-anchor="start" x="232" y="-533.3" font-family="Times,serif" font-size="14.00">update</text>
<polyline fill="none" stroke="black" points="224,-525.5 327,-525.5 "/>
<polyline fill="none" stroke="black" points="224,-501.5 327,-501.5 "/>
<text text-anchor="start" x="232" y="-486.3" font-family="Times,serif" font-size="14.00">_layout</text>
<text text-anchor="start" x="232" y="-471.3" font-family="Times,serif" font-size="14.00">set_user</text>
<text text-anchor="start" x="232" y="-456.3" font-family="Times,serif" font-size="14.00">user_params</text>
</g>
<!-- LandscapesController -->
<g id="node5" class="node">
<title>LandscapesController</title>
<path fill="none" stroke="black" d="M204,-208.5C204,-208.5 315,-208.5 315,-208.5 321,-208.5 327,-214.5 327,-220.5 327,-220.5 327,-409.5 327,-409.5 327,-415.5 321,-421.5 315,-421.5 315,-421.5 204,-421.5 204,-421.5 198,-421.5 192,-415.5 192,-409.5 192,-409.5 192,-220.5 192,-220.5 192,-214.5 198,-208.5 204,-208.5"/>
<text text-anchor="middle" x="259.5" y="-406.3" font-family="Times,serif" font-size="14.00">LandscapesController</text>
<polyline fill="none" stroke="black" points="192,-398.5 327,-398.5 "/>
<text text-anchor="start" x="200" y="-383.3" font-family="Times,serif" font-size="14.00">create</text>
<text text-anchor="start" x="200" y="-368.3" font-family="Times,serif" font-size="14.00">destroy</text>
<text text-anchor="start" x="200" y="-353.3" font-family="Times,serif" font-size="14.00">edit</text>
<text text-anchor="start" x="200" y="-338.3" font-family="Times,serif" font-size="14.00">index</text>
<text text-anchor="start" x="200" y="-323.3" font-family="Times,serif" font-size="14.00">new</text>
<text text-anchor="start" x="200" y="-308.3" font-family="Times,serif" font-size="14.00">show</text>
<text text-anchor="start" x="200" y="-293.3" font-family="Times,serif" font-size="14.00">update</text>
<polyline fill="none" stroke="black" points="192,-285.5 327,-285.5 "/>
<polyline fill="none" stroke="black" points="192,-261.5 327,-261.5 "/>
<text text-anchor="start" x="200" y="-246.3" font-family="Times,serif" font-size="14.00">_layout</text>
<text text-anchor="start" x="200" y="-231.3" font-family="Times,serif" font-size="14.00">landscape_params</text>
<text text-anchor="start" x="200" y="-216.3" font-family="Times,serif" font-size="14.00">set_landscape</text>
</g>
<!-- Users::OmniauthCallbacksController -->
<g id="node6" class="node">
<title>Users::OmniauthCallbacksController</title>
<path fill="none" stroke="black" d="M364,-384.5C364,-384.5 558,-384.5 558,-384.5 564,-384.5 570,-390.5 570,-396.5 570,-396.5 570,-466.5 570,-466.5 570,-472.5 564,-478.5 558,-478.5 558,-478.5 364,-478.5 364,-478.5 358,-478.5 352,-472.5 352,-466.5 352,-466.5 352,-396.5 352,-396.5 352,-390.5 358,-384.5 364,-384.5"/>
<text text-anchor="middle" x="461" y="-463.3" font-family="Times,serif" font-size="14.00">Users::OmniauthCallbacksController</text>
<polyline fill="none" stroke="black" points="352,-455.5 570,-455.5 "/>
<polyline fill="none" stroke="black" points="352,-431.5 570,-431.5 "/>
<polyline fill="none" stroke="black" points="352,-407.5 570,-407.5 "/>
<text text-anchor="start" x="360" y="-392.3" font-family="Times,serif" font-size="14.00">_layout</text>
</g>
<!-- Users::PasswordsController -->
<g id="node7" class="node">
<title>Users::PasswordsController</title>
<path fill="none" stroke="black" d="M44,-560.5C44,-560.5 187,-560.5 187,-560.5 193,-560.5 199,-566.5 199,-572.5 199,-572.5 199,-642.5 199,-642.5 199,-648.5 193,-654.5 187,-654.5 187,-654.5 44,-654.5 44,-654.5 38,-654.5 32,-648.5 32,-642.5 32,-642.5 32,-572.5 32,-572.5 32,-566.5 38,-560.5 44,-560.5"/>
<text text-anchor="middle" x="115.5" y="-639.3" font-family="Times,serif" font-size="14.00">Users::PasswordsController</text>
<polyline fill="none" stroke="black" points="32,-631.5 199,-631.5 "/>
<polyline fill="none" stroke="black" points="32,-607.5 199,-607.5 "/>
<polyline fill="none" stroke="black" points="32,-583.5 199,-583.5 "/>
<text text-anchor="start" x="40" y="-568.3" font-family="Times,serif" font-size="14.00">_layout</text>
</g>
<!-- Users::SessionsController -->
<g id="node8" class="node">
<title>Users::SessionsController</title>
<path fill="none" stroke="black" d="M44,-80.5C44,-80.5 177,-80.5 177,-80.5 183,-80.5 189,-86.5 189,-92.5 189,-92.5 189,-162.5 189,-162.5 189,-168.5 183,-174.5 177,-174.5 177,-174.5 44,-174.5 44,-174.5 38,-174.5 32,-168.5 32,-162.5 32,-162.5 32,-92.5 32,-92.5 32,-86.5 38,-80.5 44,-80.5"/>
<text text-anchor="middle" x="110.5" y="-159.3" font-family="Times,serif" font-size="14.00">Users::SessionsController</text>
<polyline fill="none" stroke="black" points="32,-151.5 189,-151.5 "/>
<polyline fill="none" stroke="black" points="32,-127.5 189,-127.5 "/>
<polyline fill="none" stroke="black" points="32,-103.5 189,-103.5 "/>
<text text-anchor="start" x="40" y="-88.3" font-family="Times,serif" font-size="14.00">_layout</text>
</g>
<!-- Users::UnlocksController -->
<g id="node9" class="node">
<title>Users::UnlocksController</title>
<path fill="none" stroke="black" d="M12,-432.5C12,-432.5 143,-432.5 143,-432.5 149,-432.5 155,-438.5 155,-444.5 155,-444.5 155,-514.5 155,-514.5 155,-520.5 149,-526.5 143,-526.5 143,-526.5 12,-526.5 12,-526.5 6,-526.5 0,-520.5 0,-514.5 0,-514.5 0,-444.5 0,-444.5 0,-438.5 6,-432.5 12,-432.5"/>
<text text-anchor="middle" x="77.5" y="-511.3" font-family="Times,serif" font-size="14.00">Users::UnlocksController</text>
<polyline fill="none" stroke="black" points="0,-503.5 155,-503.5 "/>
<polyline fill="none" stroke="black" points="0,-479.5 155,-479.5 "/>
<polyline fill="none" stroke="black" points="0,-455.5 155,-455.5 "/>
<text text-anchor="start" x="8" y="-440.3" font-family="Times,serif" font-size="14.00">_layout</text>
</g>
<!-- Users::ConfirmationsController -->
<g id="node10" class="node">
<title>Users::ConfirmationsController</title>
<path fill="none" stroke="black" d="M476,-512.5C476,-512.5 640,-512.5 640,-512.5 646,-512.5 652,-518.5 652,-524.5 652,-524.5 652,-594.5 652,-594.5 652,-600.5 646,-606.5 640,-606.5 640,-606.5 476,-606.5 476,-606.5 470,-606.5 464,-600.5 464,-594.5 464,-594.5 464,-524.5 464,-524.5 464,-518.5 470,-512.5 476,-512.5"/>
<text text-anchor="middle" x="558" y="-591.3" font-family="Times,serif" font-size="14.00">Users::ConfirmationsController</text>
<polyline fill="none" stroke="black" points="464,-583.5 652,-583.5 "/>
<polyline fill="none" stroke="black" points="464,-559.5 652,-559.5 "/>
<polyline fill="none" stroke="black" points="464,-535.5 652,-535.5 "/>
<text text-anchor="start" x="472" y="-520.3" font-family="Times,serif" font-size="14.00">_layout</text>
</g>
<!-- Users::RegistrationsController -->
<g id="node11" class="node">
<title>Users::RegistrationsController</title>
<path fill="none" stroke="black" d="M364,-240.5C364,-240.5 546,-240.5 546,-240.5 552,-240.5 558,-246.5 558,-252.5 558,-252.5 558,-336.5 558,-336.5 558,-342.5 552,-348.5 546,-348.5 546,-348.5 364,-348.5 364,-348.5 358,-348.5 352,-342.5 352,-336.5 352,-336.5 352,-252.5 352,-252.5 352,-246.5 358,-240.5 364,-240.5"/>
<text text-anchor="middle" x="455" y="-333.3" font-family="Times,serif" font-size="14.00">Users::RegistrationsController</text>
<polyline fill="none" stroke="black" points="352,-325.5 558,-325.5 "/>
<polyline fill="none" stroke="black" points="352,-301.5 558,-301.5 "/>
<text text-anchor="start" x="360" y="-286.3" font-family="Times,serif" font-size="14.00">configure_account_update_params</text>
<text text-anchor="start" x="360" y="-271.3" font-family="Times,serif" font-size="14.00">configure_sign_up_params</text>
<polyline fill="none" stroke="black" points="352,-263.5 558,-263.5 "/>
<text text-anchor="start" x="360" y="-248.3" font-family="Times,serif" font-size="14.00">_layout</text>
</g>
</g>
</svg>
