<?xml version="1.0" encoding="UTF-8" standalone="no"?>
<!DOCTYPE svg PUBLIC "-//W3C//DTD SVG 1.1//EN"
 "http://www.w3.org/Graphics/SVG/1.1/DTD/svg11.dtd">
<!-- Generated by graphviz version 2.44.1 (20200629.0846)
 -->
<!-- Title: models_diagram Pages: 1 -->
<svg width="1076pt" height="754pt"
 viewBox="0.00 0.00 1076.00 754.00" xmlns="http://www.w3.org/2000/svg" xmlns:xlink="http://www.w3.org/1999/xlink">
<g id="graph0" class="graph" transform="scale(1 1) rotate(0) translate(4 750)">
<title>models_diagram</title>
<polygon fill="transparent" stroke="transparent" points="-4,4 -4,-750 1072,-750 1072,4 -4,4"/>
<!-- _diagram_info -->
<g id="node1" class="node">
<title>_diagram_info</title>
<text text-anchor="start" x="303" y="-642.1" font-family="Times,serif" font-size="13.00">Models diagram</text>
<text text-anchor="start" x="303" y="-628.1" font-family="Times,serif" font-size="13.00">Date: Aug 06 2020 &#45; 20:15</text>
<text text-anchor="start" x="303" y="-614.1" font-family="Times,serif" font-size="13.00">Migration version: 20200806234457</text>
<text text-anchor="start" x="303" y="-600.1" font-family="Times,serif" font-size="13.00">Generated by RailRoady 1.5.3</text>
<text text-anchor="start" x="303" y="-586.1" font-family="Times,serif" font-size="13.00">http://railroady.prestonlee.com</text>
</g>
<!-- Landscape -->
<g id="node2" class="node">
<title>Landscape</title>
<path fill="none" stroke="black" d="M368,-301.5C368,-301.5 588,-301.5 588,-301.5 594,-301.5 600,-307.5 600,-313.5 600,-313.5 600,-440.5 600,-440.5 600,-446.5 594,-452.5 588,-452.5 588,-452.5 368,-452.5 368,-452.5 362,-452.5 356,-446.5 356,-440.5 356,-440.5 356,-313.5 356,-313.5 356,-307.5 362,-301.5 368,-301.5"/>
<text text-anchor="middle" x="478" y="-437.3" font-family="Times,serif" font-size="14.00">Landscape</text>
<polyline fill="none" stroke="black" points="356,-429.5 600,-429.5 "/>
<text text-anchor="start" x="364" y="-414.3" font-family="Times,serif" font-size="14.00">deleted_at :timestamp without time zone</text>
<text text-anchor="start" x="364" y="-399.3" font-family="Times,serif" font-size="14.00">user_id :bigint</text>
<text text-anchor="start" x="364" y="-384.3" font-family="Times,serif" font-size="14.00">active :boolean</text>
<text text-anchor="start" x="364" y="-369.3" font-family="Times,serif" font-size="14.00">created_at :timestamp without time zone</text>
<text text-anchor="start" x="364" y="-354.3" font-family="Times,serif" font-size="14.00">updated_at :timestamp without time zone</text>
<text text-anchor="start" x="364" y="-339.3" font-family="Times,serif" font-size="14.00">description :text</text>
<text text-anchor="start" x="364" y="-324.3" font-family="Times,serif" font-size="14.00">title :character varying</text>
<text text-anchor="start" x="364" y="-309.3" font-family="Times,serif" font-size="14.00">id :bigint</text>
</g>
<!-- Category -->
<g id="node3" class="node">
<title>Category</title>
<path fill="none" stroke="black" d="M12,-143.5C12,-143.5 232,-143.5 232,-143.5 238,-143.5 244,-149.5 244,-155.5 244,-155.5 244,-222.5 244,-222.5 244,-228.5 238,-234.5 232,-234.5 232,-234.5 12,-234.5 12,-234.5 6,-234.5 0,-228.5 0,-222.5 0,-222.5 0,-155.5 0,-155.5 0,-149.5 6,-143.5 12,-143.5"/>
<text text-anchor="middle" x="122" y="-219.3" font-family="Times,serif" font-size="14.00">Category</text>
<polyline fill="none" stroke="black" points="0,-211.5 244,-211.5 "/>
<text text-anchor="start" x="8" y="-196.3" font-family="Times,serif" font-size="14.00">id :bigint</text>
<text text-anchor="start" x="8" y="-181.3" font-family="Times,serif" font-size="14.00">name :character varying</text>
<text text-anchor="start" x="8" y="-166.3" font-family="Times,serif" font-size="14.00">created_at :timestamp without time zone</text>
<text text-anchor="start" x="8" y="-151.3" font-family="Times,serif" font-size="14.00">updated_at :timestamp without time zone</text>
</g>
<!-- Landscape&#45;&gt;Category -->
<g id="edge5" class="edge">
<title>Landscape&#45;&gt;Category</title>
<path fill="none" stroke="#40466f" d="M346.92,-310.86C317.56,-295.99 286.63,-280.11 258,-265 242.65,-256.9 226.42,-248.13 210.73,-239.54"/>
<polygon fill="#40466f" stroke="#40466f" points="347.06,-310.92 353.95,-319.45 351.52,-313.18 355.98,-315.44 355.98,-315.44 355.98,-315.44 351.52,-313.18 358.01,-311.42 347.06,-310.92 347.06,-310.92"/>
<polygon fill="#40466f" stroke="#40466f" points="210.33,-239.32 203.72,-230.57 205.94,-236.92 201.56,-234.51 201.56,-234.51 201.56,-234.51 205.94,-236.92 199.39,-238.46 210.33,-239.32 210.33,-239.32"/>
</g>
<!-- Tag -->
<g id="node4" class="node">
<title>Tag</title>
<path fill="none" stroke="black" d="M312,-143.5C312,-143.5 532,-143.5 532,-143.5 538,-143.5 544,-149.5 544,-155.5 544,-155.5 544,-222.5 544,-222.5 544,-228.5 538,-234.5 532,-234.5 532,-234.5 312,-234.5 312,-234.5 306,-234.5 300,-228.5 300,-222.5 300,-222.5 300,-155.5 300,-155.5 300,-149.5 306,-143.5 312,-143.5"/>
<text text-anchor="middle" x="422" y="-219.3" font-family="Times,serif" font-size="14.00">Tag</text>
<polyline fill="none" stroke="black" points="300,-211.5 544,-211.5 "/>
<text text-anchor="start" x="308" y="-196.3" font-family="Times,serif" font-size="14.00">id :bigint</text>
<text text-anchor="start" x="308" y="-181.3" font-family="Times,serif" font-size="14.00">text :text</text>
<text text-anchor="start" x="308" y="-166.3" font-family="Times,serif" font-size="14.00">created_at :timestamp without time zone</text>
<text text-anchor="start" x="308" y="-151.3" font-family="Times,serif" font-size="14.00">updated_at :timestamp without time zone</text>
</g>
<!-- Landscape&#45;&gt;Tag -->
<g id="edge3" class="edge">
<title>Landscape&#45;&gt;Tag</title>
<path fill="none" stroke="#0f359d" d="M452.65,-291.79C447.82,-275.77 442.89,-259.39 438.43,-244.58"/>
<polygon fill="#0f359d" stroke="#0f359d" points="452.66,-291.84 451.24,-302.72 454.1,-296.63 455.55,-301.42 455.55,-301.42 455.55,-301.42 454.1,-296.63 459.85,-300.12 452.66,-291.84 452.66,-291.84"/>
<polygon fill="#0f359d" stroke="#0f359d" points="438.31,-244.19 439.74,-233.31 436.87,-239.4 435.43,-234.61 435.43,-234.61 435.43,-234.61 436.87,-239.4 431.12,-235.91 438.31,-244.19 438.31,-244.19"/>
</g>
<!-- Like -->
<g id="node5" class="node">
<title>Like</title>
<path fill="none" stroke="black" d="M574,-128.5C574,-128.5 794,-128.5 794,-128.5 800,-128.5 806,-134.5 806,-140.5 806,-140.5 806,-237.5 806,-237.5 806,-243.5 800,-249.5 794,-249.5 794,-249.5 574,-249.5 574,-249.5 568,-249.5 562,-243.5 562,-237.5 562,-237.5 562,-140.5 562,-140.5 562,-134.5 568,-128.5 574,-128.5"/>
<text text-anchor="middle" x="684" y="-234.3" font-family="Times,serif" font-size="14.00">Like</text>
<polyline fill="none" stroke="black" points="562,-226.5 806,-226.5 "/>
<text text-anchor="start" x="570" y="-211.3" font-family="Times,serif" font-size="14.00">id :bigint</text>
<text text-anchor="start" x="570" y="-196.3" font-family="Times,serif" font-size="14.00">user_id :bigint</text>
<text text-anchor="start" x="570" y="-181.3" font-family="Times,serif" font-size="14.00">landscape_id :bigint</text>
<text text-anchor="start" x="570" y="-166.3" font-family="Times,serif" font-size="14.00">active :boolean</text>
<text text-anchor="start" x="570" y="-151.3" font-family="Times,serif" font-size="14.00">created_at :timestamp without time zone</text>
<text text-anchor="start" x="570" y="-136.3" font-family="Times,serif" font-size="14.00">updated_at :timestamp without time zone</text>
</g>
<!-- Landscape&#45;&gt;Like -->
<g id="edge2" class="edge">
<title>Landscape&#45;&gt;Like</title>
<path fill="none" stroke="#7badcf" d="M566.88,-295.75C581.31,-282.72 596.12,-269.35 610.15,-256.68"/>
<ellipse fill="none" stroke="#7badcf" cx="563.57" cy="-298.74" rx="4" ry="4"/>
<polygon fill="#7badcf" stroke="#7badcf" points="610.43,-256.43 620.87,-253.07 614.14,-253.08 617.85,-249.73 617.85,-249.73 617.85,-249.73 614.14,-253.08 614.83,-246.39 610.43,-256.43 610.43,-256.43"/>
</g>
<!-- LandscapeCategory -->
<g id="node6" class="node">
<title>LandscapeCategory</title>
<path fill="none" stroke="black" d="M146,-0.5C146,-0.5 248,-0.5 248,-0.5 254,-0.5 260,-6.5 260,-12.5 260,-12.5 260,-64.5 260,-64.5 260,-70.5 254,-76.5 248,-76.5 248,-76.5 146,-76.5 146,-76.5 140,-76.5 134,-70.5 134,-64.5 134,-64.5 134,-12.5 134,-12.5 134,-6.5 140,-0.5 146,-0.5"/>
<text text-anchor="middle" x="197" y="-61.3" font-family="Times,serif" font-size="14.00">LandscapeCategory</text>
<polyline fill="none" stroke="black" points="134,-53.5 260,-53.5 "/>
<text text-anchor="start" x="142" y="-38.3" font-family="Times,serif" font-size="14.00">id :bigint</text>
<text text-anchor="start" x="142" y="-23.3" font-family="Times,serif" font-size="14.00">landscape_id :bigint</text>
<text text-anchor="start" x="142" y="-8.3" font-family="Times,serif" font-size="14.00">category_id :bigint</text>
</g>
<!-- Landscape&#45;&gt;LandscapeCategory -->
<g id="edge4" class="edge">
<title>Landscape&#45;&gt;LandscapeCategory</title>
<path fill="none" stroke="#17599d" d="M348.78,-317.92C326.97,-303.29 306.43,-285.72 291,-265 249.41,-209.15 283.16,-175.76 253,-113 248.42,-103.47 242.48,-93.97 236.19,-85.12"/>
<ellipse fill="none" stroke="#17599d" cx="352.24" cy="-320.18" rx="4" ry="4"/>
<polygon fill="#17599d" stroke="#17599d" points="236.03,-84.9 233.71,-74.18 233.06,-80.88 230.09,-76.86 230.09,-76.86 230.09,-76.86 233.06,-80.88 226.47,-79.53 236.03,-84.9 236.03,-84.9"/>
</g>
<!-- Comment -->
<g id="node7" class="node">
<title>Comment</title>
<path fill="none" stroke="black" d="M836,-113.5C836,-113.5 1056,-113.5 1056,-113.5 1062,-113.5 1068,-119.5 1068,-125.5 1068,-125.5 1068,-252.5 1068,-252.5 1068,-258.5 1062,-264.5 1056,-264.5 1056,-264.5 836,-264.5 836,-264.5 830,-264.5 824,-258.5 824,-252.5 824,-252.5 824,-125.5 824,-125.5 824,-119.5 830,-113.5 836,-113.5"/>
<text text-anchor="middle" x="946" y="-249.3" font-family="Times,serif" font-size="14.00">Comment</text>
<polyline fill="none" stroke="black" points="824,-241.5 1068,-241.5 "/>
<text text-anchor="start" x="832" y="-226.3" font-family="Times,serif" font-size="14.00">deleted_at :timestamp without time zone</text>
<text text-anchor="start" x="832" y="-211.3" font-family="Times,serif" font-size="14.00">user_id :bigint</text>
<text text-anchor="start" x="832" y="-196.3" font-family="Times,serif" font-size="14.00">landscape_id :bigint</text>
<text text-anchor="start" x="832" y="-181.3" font-family="Times,serif" font-size="14.00">active :boolean</text>
<text text-anchor="start" x="832" y="-166.3" font-family="Times,serif" font-size="14.00">text :text</text>
<text text-anchor="start" x="832" y="-151.3" font-family="Times,serif" font-size="14.00">created_at :timestamp without time zone</text>
<text text-anchor="start" x="832" y="-136.3" font-family="Times,serif" font-size="14.00">updated_at :timestamp without time zone</text>
<text text-anchor="start" x="832" y="-121.3" font-family="Times,serif" font-size="14.00">id :bigint</text>
</g>
<!-- Landscape&#45;&gt;Comment -->
<g id="edge1" class="edge">
<title>Landscape&#45;&gt;Comment</title>
<path fill="none" stroke="#9b3cf0" d="M608.01,-339.89C668.95,-321.35 742.21,-296.74 814.41,-265.13"/>
<ellipse fill="none" stroke="#9b3cf0" cx="604.15" cy="-341.06" rx="4" ry="4"/>
<polygon fill="#9b3cf0" stroke="#9b3cf0" points="814.52,-265.08 825.49,-265.15 819.09,-263.06 823.67,-261.03 823.67,-261.03 823.67,-261.03 819.09,-263.06 821.85,-256.92 814.52,-265.08 814.52,-265.08"/>
</g>
<!-- Category&#45;&gt;LandscapeCategory -->
<g id="edge6" class="edge">
<title>Category&#45;&gt;LandscapeCategory</title>
<path fill="none" stroke="#32044e" d="M148.24,-136.05C156.52,-119.64 165.62,-101.64 173.69,-85.66"/>
<ellipse fill="none" stroke="#32044e" cx="146.31" cy="-139.87" rx="4" ry="4"/>
<polygon fill="#32044e" stroke="#32044e" points="173.79,-85.45 182.32,-78.55 176.05,-80.98 178.3,-76.52 178.3,-76.52 178.3,-76.52 176.05,-80.98 174.29,-74.49 173.79,-85.45 173.79,-85.45"/>
</g>
<!-- ApplicationRecord -->
<g id="node8" class="node">
<title>ApplicationRecord</title>
<ellipse fill="none" stroke="black" cx="936" cy="-617.5" rx="77.19" ry="18"/>
<text text-anchor="middle" x="936" y="-613.8" font-family="Times,serif" font-size="14.00">ApplicationRecord</text>
</g>
<!-- User -->
<g id="node9" class="node">
<title>User</title>
<path fill="none" stroke="black" d="M539.5,-489.5C539.5,-489.5 828.5,-489.5 828.5,-489.5 834.5,-489.5 840.5,-495.5 840.5,-501.5 840.5,-501.5 840.5,-733.5 840.5,-733.5 840.5,-739.5 834.5,-745.5 828.5,-745.5 828.5,-745.5 539.5,-745.5 539.5,-745.5 533.5,-745.5 527.5,-739.5 527.5,-733.5 527.5,-733.5 527.5,-501.5 527.5,-501.5 527.5,-495.5 533.5,-489.5 539.5,-489.5"/>
<text text-anchor="middle" x="684" y="-730.3" font-family="Times,serif" font-size="14.00">User</text>
<polyline fill="none" stroke="black" points="527.5,-722.5 840.5,-722.5 "/>
<text text-anchor="start" x="535.5" y="-707.3" font-family="Times,serif" font-size="14.00">updated_at :timestamp without time zone</text>
<text text-anchor="start" x="535.5" y="-692.3" font-family="Times,serif" font-size="14.00">email :character varying</text>
<text text-anchor="start" x="535.5" y="-677.3" font-family="Times,serif" font-size="14.00">encrypted_password :character varying</text>
<text text-anchor="start" x="535.5" y="-662.3" font-family="Times,serif" font-size="14.00">reset_password_token :character varying</text>
<text text-anchor="start" x="535.5" y="-647.3" font-family="Times,serif" font-size="14.00">reset_password_sent_at :timestamp without time zone</text>
<text text-anchor="start" x="535.5" y="-632.3" font-family="Times,serif" font-size="14.00">remember_created_at :timestamp without time zone</text>
<text text-anchor="start" x="535.5" y="-617.3" font-family="Times,serif" font-size="14.00">confirmation_token :character varying</text>
<text text-anchor="start" x="535.5" y="-602.3" font-family="Times,serif" font-size="14.00">confirmed_at :timestamp without time zone</text>
<text text-anchor="start" x="535.5" y="-587.3" font-family="Times,serif" font-size="14.00">confirmation_sent_at :timestamp without time zone</text>
<text text-anchor="start" x="535.5" y="-572.3" font-family="Times,serif" font-size="14.00">unconfirmed_email :character varying</text>
<text text-anchor="start" x="535.5" y="-557.3" font-family="Times,serif" font-size="14.00">name :character varying</text>
<text text-anchor="start" x="535.5" y="-542.3" font-family="Times,serif" font-size="14.00">lastname :character varying</text>
<text text-anchor="start" x="535.5" y="-527.3" font-family="Times,serif" font-size="14.00">nickname :character varying</text>
<text text-anchor="start" x="535.5" y="-512.3" font-family="Times,serif" font-size="14.00">created_at :timestamp without time zone</text>
<text text-anchor="start" x="535.5" y="-497.3" font-family="Times,serif" font-size="14.00">id :bigint</text>
</g>
<!-- User&#45;&gt;Landscape -->
<g id="edge7" class="edge">
<title>User&#45;&gt;Landscape</title>
<path fill="none" stroke="#007c73" d="M568.74,-483.06C562.12,-475.39 555.57,-467.8 549.19,-460.43"/>
<ellipse fill="none" stroke="#007c73" cx="571.45" cy="-486.19" rx="4" ry="4"/>
<polygon fill="#007c73" stroke="#007c73" points="548.89,-460.07 545.76,-449.57 545.62,-456.29 542.35,-452.51 542.35,-452.51 542.35,-452.51 545.62,-456.29 538.95,-455.45 548.89,-460.07 548.89,-460.07"/>
</g>
<!-- User&#45;&gt;Like -->
<g id="edge9" class="edge">
<title>User&#45;&gt;Like</title>
<path fill="none" stroke="#bd80ad" d="M684,-480.96C684,-407.35 684,-319.44 684,-259.66"/>
<ellipse fill="none" stroke="#bd80ad" cx="684" cy="-485.4" rx="4" ry="4"/>
<polygon fill="#bd80ad" stroke="#bd80ad" points="684,-259.57 688.5,-249.57 684,-254.57 684,-249.57 684,-249.57 684,-249.57 684,-254.57 679.5,-249.57 684,-259.57 684,-259.57"/>
</g>
<!-- User&#45;&gt;Comment -->
<g id="edge8" class="edge">
<title>User&#45;&gt;Comment</title>
<path fill="none" stroke="#89a1b1" d="M766.33,-482.49C808.45,-413.92 858.39,-332.61 894.92,-273.15"/>
<ellipse fill="none" stroke="#89a1b1" cx="764.17" cy="-485.99" rx="4" ry="4"/>
<polygon fill="#89a1b1" stroke="#89a1b1" points="894.98,-273.06 904.05,-266.89 897.59,-268.8 900.21,-264.54 900.21,-264.54 900.21,-264.54 897.59,-268.8 896.38,-262.18 894.98,-273.06 894.98,-273.06"/>
</g>
</g>
</svg>
