<?xml version="1.0" encoding="UTF-8" standalone="no"?>
<!DOCTYPE svg PUBLIC "-//W3C//DTD SVG 1.1//EN"
 "http://www.w3.org/Graphics/SVG/1.1/DTD/svg11.dtd">
<!-- Generated by graphviz version 2.44.1 (20200629.0846)
 -->
<!-- Title: models_diagram Pages: 1 -->
<svg width="467pt" height="302pt"
 viewBox="0.00 0.00 467.34 302.00" xmlns="http://www.w3.org/2000/svg" xmlns:xlink="http://www.w3.org/1999/xlink">
<g id="graph0" class="graph" transform="scale(1 1) rotate(0) translate(4 298)">
<title>models_diagram</title>
<polygon fill="transparent" stroke="transparent" points="-4,4 -4,-298 463.34,-298 463.34,4 -4,4"/>
<!-- _diagram_info -->
<g id="node1" class="node">
<title>_diagram_info</title>
<text text-anchor="start" x="8" y="-279.6" font-family="Times,serif" font-size="13.00">Models diagram</text>
<text text-anchor="start" x="8" y="-265.6" font-family="Times,serif" font-size="13.00">Date: Aug 06 2020 &#45; 20:15</text>
<text text-anchor="start" x="8" y="-251.6" font-family="Times,serif" font-size="13.00">Migration version: 20200806234457</text>
<text text-anchor="start" x="8" y="-237.6" font-family="Times,serif" font-size="13.00">Generated by RailRoady 1.5.3</text>
<text text-anchor="start" x="8" y="-223.6" font-family="Times,serif" font-size="13.00">http://railroady.prestonlee.com</text>
</g>
<!-- Landscape -->
<g id="node2" class="node">
<title>Landscape</title>
<ellipse fill="none" stroke="black" cx="183" cy="-162" rx="48.19" ry="18"/>
<text text-anchor="middle" x="183" y="-158.3" font-family="Times,serif" font-size="14.00">Landscape</text>
</g>
<!-- Category -->
<g id="node3" class="node">
<title>Category</title>
<ellipse fill="none" stroke="black" cx="57" cy="-90" rx="42.79" ry="18"/>
<text text-anchor="middle" x="57" y="-86.3" font-family="Times,serif" font-size="14.00">Category</text>
</g>
<!-- Landscape&#45;&gt;Category -->
<g id="edge5" class="edge">
<title>Landscape&#45;&gt;Category</title>
<path fill="none" stroke="#9859ac" d="M148.25,-141.69C130.33,-131.74 108.58,-119.65 90.8,-109.78"/>
<polygon fill="#9859ac" stroke="#9859ac" points="148.46,-141.81 155.01,-150.6 152.83,-144.24 157.2,-146.67 157.2,-146.67 157.2,-146.67 152.83,-144.24 159.38,-142.73 148.46,-141.81 148.46,-141.81"/>
<polygon fill="#9859ac" stroke="#9859ac" points="90.65,-109.69 84.09,-100.9 86.28,-107.27 81.91,-104.84 81.91,-104.84 81.91,-104.84 86.28,-107.27 79.72,-108.77 90.65,-109.69 90.65,-109.69"/>
</g>
<!-- Tag -->
<g id="node4" class="node">
<title>Tag</title>
<ellipse fill="none" stroke="black" cx="183" cy="-90" rx="27" ry="18"/>
<text text-anchor="middle" x="183" y="-86.3" font-family="Times,serif" font-size="14.00">Tag</text>
</g>
<!-- Landscape&#45;&gt;Tag -->
<g id="edge3" class="edge">
<title>Landscape&#45;&gt;Tag</title>
<path fill="none" stroke="#0934ca" d="M183,-133.67C183,-128.69 183,-123.49 183,-118.51"/>
<polygon fill="#0934ca" stroke="#0934ca" points="183,-133.7 178.5,-143.7 183,-138.7 183,-143.7 183,-143.7 183,-143.7 183,-138.7 187.5,-143.7 183,-133.7 183,-133.7"/>
<polygon fill="#0934ca" stroke="#0934ca" points="183,-118.1 187.5,-108.1 183,-113.1 183,-108.1 183,-108.1 183,-108.1 183,-113.1 178.5,-108.1 183,-118.1 183,-118.1"/>
</g>
<!-- Like -->
<g id="node5" class="node">
<title>Like</title>
<ellipse fill="none" stroke="black" cx="255" cy="-90" rx="27" ry="18"/>
<text text-anchor="middle" x="255" y="-86.3" font-family="Times,serif" font-size="14.00">Like</text>
</g>
<!-- Landscape&#45;&gt;Like -->
<g id="edge2" class="edge">
<title>Landscape&#45;&gt;Like</title>
<path fill="none" stroke="#d8105e" d="M205.74,-138.89C214.49,-130.38 224.46,-120.7 233.12,-112.27"/>
<ellipse fill="none" stroke="#d8105e" cx="202.57" cy="-141.98" rx="4" ry="4"/>
<polygon fill="#d8105e" stroke="#d8105e" points="233.17,-112.22 243.48,-108.48 236.76,-108.74 240.34,-105.25 240.34,-105.25 240.34,-105.25 236.76,-108.74 237.21,-102.02 233.17,-112.22 233.17,-112.22"/>
</g>
<!-- LandscapeCategory -->
<g id="node6" class="node">
<title>LandscapeCategory</title>
<ellipse fill="none" stroke="black" cx="92" cy="-18" rx="80.69" ry="18"/>
<text text-anchor="middle" x="92" y="-14.3" font-family="Times,serif" font-size="14.00">LandscapeCategory</text>
</g>
<!-- Landscape&#45;&gt;LandscapeCategory -->
<g id="edge4" class="edge">
<title>Landscape&#45;&gt;LandscapeCategory</title>
<path fill="none" stroke="#b5fcab" d="M166.86,-137.71C160.58,-128.52 153.36,-117.82 147,-108 133.29,-86.84 118.27,-62.46 107.4,-44.58"/>
<ellipse fill="none" stroke="#b5fcab" cx="169.2" cy="-141.12" rx="4" ry="4"/>
<polygon fill="#b5fcab" stroke="#b5fcab" points="107.31,-44.42 105.97,-33.53 104.72,-40.14 102.13,-35.87 102.13,-35.87 102.13,-35.87 104.72,-40.14 98.28,-38.2 107.31,-44.42 107.31,-44.42"/>
</g>
<!-- Comment -->
<g id="node7" class="node">
<title>Comment</title>
<ellipse fill="none" stroke="black" cx="346" cy="-90" rx="46.29" ry="18"/>
<text text-anchor="middle" x="346" y="-86.3" font-family="Times,serif" font-size="14.00">Comment</text>
</g>
<!-- Landscape&#45;&gt;Comment -->
<g id="edge1" class="edge">
<title>Landscape&#45;&gt;Comment</title>
<path fill="none" stroke="#069636" d="M220.79,-144.77C246.64,-133.67 280.82,-118.99 306.93,-107.78"/>
<ellipse fill="none" stroke="#069636" cx="216.95" cy="-146.42" rx="4" ry="4"/>
<polygon fill="#069636" stroke="#069636" points="306.97,-107.76 317.94,-107.95 311.57,-105.79 316.16,-103.81 316.16,-103.81 316.16,-103.81 311.57,-105.79 314.38,-99.68 306.97,-107.76 306.97,-107.76"/>
</g>
<!-- Category&#45;&gt;LandscapeCategory -->
<g id="edge6" class="edge">
<title>Category&#45;&gt;LandscapeCategory</title>
<path fill="none" stroke="#f00fd6" d="M69.09,-64.83C72.24,-58.51 75.66,-51.68 78.87,-45.27"/>
<ellipse fill="none" stroke="#f00fd6" cx="67.26" cy="-68.48" rx="4" ry="4"/>
<polygon fill="#f00fd6" stroke="#f00fd6" points="78.89,-45.22 87.39,-38.29 81.13,-40.75 83.36,-36.28 83.36,-36.28 83.36,-36.28 81.13,-40.75 79.34,-34.26 78.89,-45.22 78.89,-45.22"/>
</g>
<!-- ApplicationRecord -->
<g id="node8" class="node">
<title>ApplicationRecord</title>
<ellipse fill="none" stroke="black" cx="382" cy="-255" rx="77.19" ry="18"/>
<text text-anchor="middle" x="382" y="-251.3" font-family="Times,serif" font-size="14.00">ApplicationRecord</text>
</g>
<!-- User -->
<g id="node9" class="node">
<title>User</title>
<ellipse fill="none" stroke="black" cx="259" cy="-255" rx="27.1" ry="18"/>
<text text-anchor="middle" x="259" y="-251.3" font-family="Times,serif" font-size="14.00">User</text>
</g>
<!-- User&#45;&gt;Landscape -->
<g id="edge7" class="edge">
<title>User&#45;&gt;Landscape</title>
<path fill="none" stroke="#b4b7a8" d="M241.31,-232.81C229.9,-219.16 215.05,-201.37 203.19,-187.17"/>
<ellipse fill="none" stroke="#b4b7a8" cx="243.89" cy="-235.9" rx="4" ry="4"/>
<polygon fill="#b4b7a8" stroke="#b4b7a8" points="203.01,-186.95 200.05,-176.39 199.8,-183.12 196.6,-179.28 196.6,-179.28 196.6,-179.28 199.8,-183.12 193.14,-182.16 203.01,-186.95 203.01,-186.95"/>
</g>
<!-- User&#45;&gt;Like -->
<g id="edge9" class="edge">
<title>User&#45;&gt;Like</title>
<path fill="none" stroke="#b49be1" d="M258.37,-228.52C257.64,-198.6 256.43,-149.16 255.67,-118.43"/>
<ellipse fill="none" stroke="#b49be1" cx="258.48" cy="-232.87" rx="4" ry="4"/>
<polygon fill="#b49be1" stroke="#b49be1" points="255.67,-118.39 259.93,-108.29 255.55,-113.4 255.43,-108.4 255.43,-108.4 255.43,-108.4 255.55,-113.4 250.93,-108.51 255.67,-118.39 255.67,-118.39"/>
</g>
<!-- User&#45;&gt;Comment -->
<g id="edge8" class="edge">
<title>User&#45;&gt;Comment</title>
<path fill="none" stroke="#2d7473" d="M271.64,-230.32C287.71,-200.2 315.38,-148.36 332.06,-117.12"/>
<ellipse fill="none" stroke="#2d7473" cx="269.54" cy="-234.25" rx="4" ry="4"/>
<polygon fill="#2d7473" stroke="#2d7473" points="332.15,-116.96 340.82,-110.25 334.5,-112.55 336.85,-108.14 336.85,-108.14 336.85,-108.14 334.5,-112.55 332.88,-106.02 332.15,-116.96 332.15,-116.96"/>
</g>
</g>
</svg>
